Coordinates
version=1
nRows=18
nColumns=22
inDegrees=yes

Units are S.I. units (second, meters, Newtons, ...)
If the header above contains a line with 'inDegrees', this indicates whether rotational values are in degrees (yes) or radians (no).

endheader
time	pelvis_tilt	pelvis_list	pelvis_rotation	pelvis_tx	pelvis_ty	pelvis_tz	hip_flexion_r	hip_adduction_r	hip_rotation_r	knee_angle_r	ankle_angle_r	subtalar_angle_r	hip_flexion_l	hip_adduction_l	hip_rotation_l	knee_angle_l	ankle_angle_l	subtalar_angle_l	lumbar_extension	lumbar_bending	lumbar_rotation
      4.13000000	     -4.24180866	     -3.66944424	      3.03829626	     -0.76440011	      1.01404737	      0.22612780	      8.76521796	      2.64733008	     -6.58175682	    -17.36059720	     11.44935781	      0.27548533	      7.90671104	     -5.81154863	     -5.27797830	    -15.96777696	     12.19992476	      2.14729372	      0.31364844	     -0.05834166	     -2.89734204
      4.14000000	     -4.33246627	     -3.61909519	      3.18575494	     -0.76566076	      1.01426004	      0.22416718	      8.90291762	      2.48261798	     -6.58075042	    -17.32688255	     11.38832727	      0.23011041	      7.82881907	     -5.58493100	     -5.20250543	    -15.44563391	     12.05199972	      1.99795552	      0.48369455	     -0.08733914	     -3.14133322
      4.15000000	     -4.40452954	     -3.54772179	      3.34164362	     -0.76692359	      1.01458141	      0.22223266	      9.00145067	      2.29825256	     -6.60667854	    -17.25825447	     11.35209024	      0.17643761	      7.78613036	     -5.35158844	     -5.09766258	    -15.03319886	     11.88119686	      1.91357410	      0.62174375	     -0.15082286	     -3.35893961
      4.16000000	     -4.45278640	     -3.46507482	      3.49664620	     -0.76816597	      1.01499275	      0.22034016	      9.06165439	      2.10616745	     -6.64135819	    -17.17080097	     11.31593740	      0.11833591	      7.74833313	     -5.12247807	     -4.97737480	    -14.68986925	     11.69868672	      1.91553720	      0.73256389	     -0.23236092	     -3.54293786
      4.17000000	     -4.47706672	     -3.38081901	      3.63231780	     -0.76940848	      1.01546407	      0.21851695	      9.08633551	      1.91765824	     -6.67934414	    -17.06265232	     11.27644875	      0.05905365	      7.69772335	     -4.90775921	     -4.86568439	    -14.38444133	     11.52228141	      2.00939610	      0.80817981	     -0.32101918	     -3.67391677
      4.18000000	     -4.47600598	     -3.29950927	      3.73582168	     -0.77063119	      1.01597050	      0.21677824	      9.07892796	      1.73807629	     -6.71324644	    -16.94445523	     11.23175170	      0.00361591	      7.61670155	     -4.71179228	     -4.79024477	    -14.08938039	     11.36072358	      2.18568763	      0.85431295	     -0.40672199	     -3.74366260
      4.19000000	     -4.47365105	     -3.23398193	      3.79051655	     -0.77181697	      1.01645315	      0.21513622	      9.05969745	      1.58156127	     -6.71766668	    -16.80225737	     11.15098936	     -0.02131784	      7.52365040	     -4.54365286	     -4.75557151	    -13.79805172	     11.22765118	      2.36540832	      0.90398424	     -0.47443467	     -3.71932994
      4.20000000	     -4.42172830	     -3.15841938	      3.78633809	     -0.77295677	      1.01695506	      0.21360415	      8.99191953	      1.42032988	     -6.72157669	    -16.66877241	     11.13175576	     -0.05563891	      7.35137331	     -4.38228654	     -4.83828783	    -13.48062443	     11.12057735	      2.67388200	      0.88827829	     -0.54523163	     -3.65388335
      4.21000000	     -4.39269809	     -3.11447284	      3.72008404	     -0.77404905	      1.01736300	      0.21218708	      8.95185417	      1.29555183	     -6.70202592	    -16.53300642	     11.06148433	     -0.03709327	      7.18925737	     -4.25993037	     -4.96497862	    -13.15829374	     11.05123483	      2.90490969	      0.90572566	     -0.58054948	     -3.48213694
      4.22000000	     -4.38170242	     -3.07123001	      3.60117147	     -0.77509117	      1.01768038	      0.21085721	      8.93620765	      1.17154284	     -6.65984589	    -16.40521785	     10.97674658	      0.01109568	      7.02991828	     -4.14038634	     -5.14743439	    -12.82521518	     10.97491027	      3.04375502	      0.94400254	     -0.60947125	     -3.27989865
      4.23000000	     -4.36377514	     -3.03372111	      3.42725275	     -0.77605376	      1.01793538	      0.20962167	      8.92199709	      1.05472785	     -6.60814254	    -16.29400161	     10.89833510	      0.09085464	      6.84535308	     -4.03158068	     -5.38784249	    -12.48255755	     10.92065316	      3.14820301	      0.97780291	     -0.62641100	     -3.01479819
      4.24000000	     -4.35391334	     -2.99754586	      3.21523015	     -0.77695097	      1.01811562	      0.20845959	      8.92292362	      0.93848422	     -6.54920463	    -16.19441963	     10.79947261	      0.19362367	      6.66142830	     -3.92509379	     -5.65916043	    -12.14126167	     10.86640139	      3.19822551	      1.02248107	     -0.63753157	     -2.72890998
      4.25000000	     -4.33653188	     -2.96020447	      2.96575080	     -0.77776791	      1.01824866	      0.20737416	      8.92274531	      0.82215335	     -6.48308831	    -16.10867090	     10.70309424	      0.33095216	      6.46034720	     -3.81958988	     -5.96356720	    -11.80014039	     10.81721325	      3.20816399	      1.06276276	     -0.64612475	     -2.41901354
      4.26000000	     -4.32064805	     -2.92431462	      2.71245150	     -0.77854749	      1.01833032	      0.20632163	      8.93495436	      0.70363108	     -6.43526241	    -16.04062560	     10.58077379	      0.47807553	      6.27158151	     -3.71465190	     -6.25162724	    -11.48354783	     10.76725940	      3.18418568	      1.10293569	     -0.65120974	     -2.13401818
      4.27000000	     -4.29569824	     -2.88304007	      2.45091382	     -0.77927239	      1.01838982	      0.20532104	      8.94445078	      0.58085015	     -6.38501113	    -15.98501111	     10.44360243	      0.64589556	      6.07637434	     -3.60582484	     -6.54441190	    -11.17786488	     10.70978136	      3.13752471	      1.13454217	     -0.66248368	     -1.86317315
      4.28000000	     -4.26006240	     -2.84081953	      2.19876394	     -0.77995870	      1.01843930	      0.20434840	      8.94984390	      0.45714985	     -6.34496602	    -15.94210328	     10.28955316	      0.83036258	      5.88242538	     -3.49684082	     -6.81708513	    -10.89423137	     10.64622295	      3.07803445	      1.15467141	     -0.67525613	     -1.62371628
      4.29000000	     -4.21870599	     -2.79844622	      1.96689626	     -0.78061881	      1.01848353	      0.20339861	      8.95455893	      0.33454166	     -6.31076602	    -15.90863014	     10.10991747	      1.01597496	      5.69947907	     -3.38922823	     -7.06276174	    -10.63595523	     10.57462320	      3.01899575	      1.16671657	     -0.69153116	     -1.43105166
      4.30000000	     -4.16562671	     -2.75895723	      1.75402918	     -0.78123828	      1.01853938	      0.20246947	      8.94843076	      0.21775204	     -6.28777916	    -15.87948748	      9.92682671	      1.21603760	      5.51774700	     -3.28581621	     -7.28129710	    -10.39938332	     10.50306378	      2.95847087	      1.16735078	     -0.70900492	     -1.25773905
